# xmcd
# 
# Track frame offsets:
#     183
#     18848
#     36778
#     39545
#     53040
#     66288
#     70840
#     86210
#     101438
#     119843
#     135338
#     150488
# 
# Disc length: 2219
# 
# Revision: 14
# Processed by: cddbd v1.5.2PL0 Copyright (c) Steve Scherf et al.
# Submitted via: fre:ac v1.0.27
# 
DISCID=9c08a90c
DTITLE=Warren G - Regulate... G Funk Era
DYEAR=1994
DGENRE=Rap
TTITLE0=Warren G, Nate Dogg - Regulate
TTITLE1=Warren G, Nate Dogg - Do You See
TTITLE2=Warren G, B-Tip, Ricky Harris - Gangsta Sermon
TTITLE3=Warren G, Twinz - Recognize
TTITLE4=Warren G, Jah-Skillz - Super Soul Sis
TTITLE5=Warren G, B-Tip, Ricky Harris - '94 Ho Draft
TTITLE6=Warren G, Dewayne, Lady Levi - So Many Ways
TTITLE7=Warren G - This D.J.
TTITLE8=Warren G, Dove Shack - This Is The Shack
TTITLE9=Warren G, Lil' Malik - What's Next
TTITLE10=Warren G - And Ya Don't Stop
TTITLE11=Warren G, Jah-Skillz, Twinz - Runnin' Wit No Breaks
EXTD=\n
EXTT0=
EXTT1=
EXTT2=
EXTT3=
EXTT4=
EXTT5=
EXTT6=
EXTT7=
EXTT8=
EXTT9=
EXTT10=
EXTT11=
PLAYORDER=
